<svg xmlns="http://www.w3.org/2000/svg" viewBox="0 0 1280 860" role="img" aria-labelledby="title desc">
  <title id="title">OpenClaw Dashboard Illustration</title>
  <desc id="desc">An abstract dashboard preview used as a benchmark illustration.</desc>
  <defs>
    <linearGradient id="surface" x1="0" x2="1" y1="0" y2="1">
      <stop offset="0%" stop-color="#f4f7fb"/>
      <stop offset="100%" stop-color="#e6edf7"/>
    </linearGradient>
    <linearGradient id="hero" x1="0" x2="1" y1="0" y2="1">
      <stop offset="0%" stop-color="#223a57"/>
      <stop offset="100%" stop-color="#3c6fa3"/>
    </linearGradient>
  </defs>
  <rect width="1280" height="860" rx="28" fill="#dfe7f2"/>
  <rect x="40" y="40" width="1200" height="780" rx="24" fill="url(#surface)"/>
  <rect x="40" y="40" width="224" height="780" rx="24" fill="#1d2e45"/>
  <rect x="300" y="88" width="890" height="112" rx="24" fill="url(#hero)"/>
  <rect x="328" y="124" width="188" height="20" rx="10" fill="#fff" opacity=".88"/>
  <rect x="328" y="156" width="286" height="14" rx="7" fill="#c9d8ea" opacity=".75"/>
  <rect x="300" y="236" width="280" height="172" rx="20" fill="#fff"/>
  <rect x="606" y="236" width="280" height="172" rx="20" fill="#fff"/>
  <rect x="910" y="236" width="280" height="172" rx="20" fill="#fff"/>
  <rect x="300" y="436" width="890" height="340" rx="20" fill="#fff"/>
  <rect x="96" y="118" width="112" height="18" rx="9" fill="#7f97b3"/>
  <rect x="96" y="170" width="132" height="16" rx="8" fill="#4a6584"/>
  <rect x="96" y="214" width="132" height="16" rx="8" fill="#4a6584"/>
  <rect x="96" y="258" width="132" height="16" rx="8" fill="#4a6584"/>
  <rect x="96" y="302" width="132" height="16" rx="8" fill="#4a6584"/>
  <rect x="96" y="346" width="132" height="16" rx="8" fill="#4a6584"/>
  <rect x="332" y="264" width="96" height="14" rx="7" fill="#6d86a5"/>
  <rect x="332" y="292" width="140" height="44" rx="12" fill="#eef4fb"/>
  <rect x="332" y="348" width="216" height="12" rx="6" fill="#d4dfec"/>
  <rect x="638" y="264" width="96" height="14" rx="7" fill="#6d86a5"/>
  <path d="M650 358c44-72 86-96 132-80s56 70 92 78 54-20 90-54v58H650z" fill="#8bc0ff"/>
  <path d="M964 358H650v-18c34-26 58-36 84-32 32 6 46 34 84 38 28 4 56-8 104-44 16 18 28 36 42 56z" fill="#2f6fad"/>
  <rect x="942" y="264" width="96" height="14" rx="7" fill="#6d86a5"/>
  <circle cx="1028" cy="330" r="44" fill="#e9f1fb"/>
  <circle cx="1028" cy="330" r="24" fill="#7bb0eb"/>
  <rect x="332" y="474" width="180" height="16" rx="8" fill="#6d86a5"/>
  <rect x="332" y="514" width="826" height="14" rx="7" fill="#d8e2ee"/>
  <rect x="332" y="548" width="826" height="14" rx="7" fill="#d8e2ee"/>
  <rect x="332" y="582" width="826" height="14" rx="7" fill="#d8e2ee"/>
  <rect x="332" y="616" width="826" height="14" rx="7" fill="#d8e2ee"/>
  <rect x="332" y="662" width="204" height="64" rx="16" fill="#203447"/>
  <rect x="560" y="662" width="204" height="64" rx="16" fill="#eef4fb"/>
  <rect x="788" y="662" width="204" height="64" rx="16" fill="#eef4fb"/>
  <rect x="1016" y="662" width="142" height="64" rx="16" fill="#7bb0eb"/>
</svg>
